PathFileType	4	(X/Y/Z)	S01_0019_Gait_markers.trc
DataRate	CameraRate	NumFrames	NumMarkers	Units	OrigDataRate	OrigDataStartFrame	OrigNumFrames
250.000000	250.000000	4	54	mm	250.000000	90	363
Frame#	Time	HEAD_ANT			R_HEAD			L_HEAD			C7			R_BACK			L_BACK			STERNUM			R_ACROMION			R_HUM_PROX			R_HUM_ANT			R_HUM_POST			R_ELBOW_LAT			R_ELBOW_MED			R_FOREARM			R_WIRST_LAT			R_WRITS_MED			R_HAND			L_ACROMION			L_HUM_PROX			L_HUM_ANT			L_HUM_POST			L_ELBOW_LAT			L_ELBOW_MED			L_FOREARM			L_WRIST_LAT			L_WIRST_MED			L_HAND			R_ILIAC			SACRUM			L_ILIAC			R_GTROCH			R_THIGH__1			R_THIGH_2			R_THIGH_3			R_THIGH_4			R_SHANK_1			R_SHANK_2			R_SHANK_3			R_SHANK_4			R_HEEL			R_FOOT_LAT			R_FOOT_MED			L_GTROCH			L_THIGH_1			L_THIGH_2			L_THIGH_3			L_THIGH_4			L_SHANK_1			L_SHANK_2			L_SHANK_3			L_SHANK_4			L_HEEL			L_FOOT_LAT			L_FOOT_MED			
		X1	Y1	Z1	X2	Y2	Z2	X3	Y3	Z3	X4	Y4	Z4	X5	Y5	Z5	X6	Y6	Z6	X7	Y7	Z7	X8	Y8	Z8	X9	Y9	Z9	X10	Y10	Z10	X11	Y11	Z11	X12	Y12	Z12	X13	Y13	Z13	X14	Y14	Z14	X15	Y15	Z15	X16	Y16	Z16	X17	Y17	Z17	X18	Y18	Z18	X19	Y19	Z19	X20	Y20	Z20	X21	Y21	Z21	X22	Y22	Z22	X23	Y23	Z23	X24	Y24	Z24	X25	Y25	Z25	X26	Y26	Z26	X27	Y27	Z27	X28	Y28	Z28	X29	Y29	Z29	X30	Y30	Z30	X31	Y31	Z31	X32	Y32	Z32	X33	Y33	Z33	X34	Y34	Z34	X35	Y35	Z35	X36	Y36	Z36	X37	Y37	Z37	X38	Y38	Z38	X39	Y39	Z39	X40	Y40	Z40	X41	Y41	Z41	X42	Y42	Z42	X43	Y43	Z43	X44	Y44	Z44	X45	Y45	Z45	X46	Y46	Z46	X47	Y47	Z47	X48	Y48	Z48	X49	Y49	Z49	X50	Y50	Z50	X51	Y51	Z51	X52	Y52	Z52	X53	Y53	Z53	X54	Y54	Z54	

91	0.36	501.030517578125	1743.163330078125	-290.6511840820309	444.4882507324219	1691.034912109375	-212.8329620361324	442.2599792480469	1694.050903320312	-360.4831237792965	312.5486755371094	1518.508422851562	-287.1263732910153	244.4466552734375	1318.5634765625	-228.3216857910153	246.1661987304688	1325.8330078125	-367.0090026855466	495.1265563964844	1362.118896484375	-290.2299804687497	389.8849182128906	1465.9501953125	-117.493843078613	354.4260864257812	1304.1728515625	-31.42794990539522	416.2623596191406	1218.781127929688	-30.17029953002903	294.0653076171875	1220.145263671875	-19.5812911987302	343.1441650390625	1114.4091796875	-14.96709346771216	313.8447875976562	1112.416381835938	-93.5189056396482	447.1708068847656	932.2759399414062	-26.44085311889628	482.4259948730469	868.326416015625	-72.11586761474589	420.8162231445312	843.932861328125	-26.6732578277586	493.3081359863281	779.2801513671875	-20.54075622558576	395.2578125	1480.745727539062	-456.0799865722653	377.2990112304688	1315.645751953125	-555.3702392578122	439.3247680664062	1235.424194335938	-555.1201171874998	319.70556640625	1238.760620117188	-584.0272216796873	377.2918090820312	1134.8046875	-593.0665893554685	323.51318359375	1128.151123046875	-537.0654296874998	473.41455078125	954.4770507812501	-588.8727416992185	494.8191528320312	886.0300903320314	-539.867248535156	456.0940856933594	875.5640258789064	-607.4625854492185	522.6857299804688	807.3397216796876	-592.3036499023435	387.2008972167969	1074.21875	-126.1327972412107	260.7352905273438	1047.736450195312	-299.2634277343748	382.8615112304688	1063.0888671875	-472.4572448730466	342.1589660644531	927.7767944335938	-113.4078979492186	416.2848205566406	646.1467895507812	-147.1696166992186	470.0856018066406	669.0869750976562	-143.6441497802733	486.4703063964844	571.2635498046875	-185.1447448730468	422.3232116699219	567.3130493164062	-172.5303344726561	419.6397094726562	341.8318176269532	-178.5057220458984	472.9745178222656	321.6206970214844	-199.4635009765624	466.3060607910156	238.3201599121094	-221.2796020507812	404.2653503417969	244.3550415039063	-204.7613983154296	352.4225769042969	42.18704986572272	-296.8465576171875	515.526123046875	18.68182754516606	-210.7319793701172	571.2920532226562	30.16584968566902	-315.1388854980469	351.2541198730469	948.9453125000001	-476.8019714355466	477.8558044433594	663.7872314453126	-473.6014709472655	422.2839965820312	680.5153198242189	-488.2101745605467	417.3954772949219	574.8954467773439	-470.331329345703	480.7423095703125	582.1679687500001	-462.7825622558593	309.3117065429688	360.0311279296876	-467.8541870117187	257.7739562988281	389.4921875000001	-476.6887207031249	189.2322387695312	336.7891235351564	-462.3842163085937	234.0340118408203	292.1369934082032	-450.2453613281249	24.45588684082031	261.4797363281251	-398.3788146972656	85.94042205810547	87.60784912109385	-444.6665954589844	116.6947174072266	83.91680145263679	-347.3795776367188	
92	0.364	506.5638732910156	1744.194213867188	-290.6432495117184	449.8896179199219	1692.01171875	-212.635833740234	447.7224426269531	1695.020629882812	-360.5118408203121	317.4078979492188	1519.8212890625	-287.0092773437497	251.4486999511719	1319.309326171875	-227.4943237304685	251.4420776367188	1326.529663085938	-366.369934082031	500.556396484375	1363.397216796875	-290.2292480468747	395.2756652832031	1467.17626953125	-117.4864654541012	359.7615051269531	1305.253295898438	-31.12661361694307	421.7814025878906	1220.074951171875	-29.72066688537571	299.6334838867188	1221.181640625	-19.53885841369602	348.8563537597656	1115.651245117188	-14.72247791290259	319.5726623535156	1113.511352539062	-93.07340240478491	453.9688720703125	934.0589599609375	-26.73583602905253	489.3683166503906	870.1729736328125	-72.47439575195293	428.0634155273438	845.4609375	-27.02545356750469	500.8965454101562	781.3489379882812	-20.89959907531721	400.1834106445312	1481.858520507812	-456.0277709960934	382.0204772949219	1316.708862304688	-555.2720336914059	444.3451232910156	1236.376708984375	-555.0966796874998	323.8493957519531	1239.985717773438	-583.7841186523435	382.0960693359375	1135.884765625	-592.8549194335935	328.2621154785156	1129.326171875	-536.9442138671873	477.6687622070312	955.3718261718751	-589.1121826171873	498.5169372558594	886.4495849609376	-540.2094726562498	460.3329467773438	876.6667480468751	-608.0431518554685	526.1273193359375	807.7407836914064	-592.655822753906	392.4241333007812	1075.56591796875	-126.3580017089841	266.1993713378906	1048.798461914062	-298.9259338378904	388.3138732910156	1064.528930664062	-471.9752197265623	347.1669311523438	928.4861450195312	-113.5211181640623	418.7556457519531	646.5137329101562	-147.1062164306639	472.8297119140625	669.1380615234375	-143.460723876953	488.3829345703125	570.9047241210938	-184.9210205078124	424.2267150878906	567.8995361328125	-172.7023773193358	420.4074096679688	342.1558532714844	-178.6384124755859	473.7022094726562	321.7795104980469	-199.4301757812499	466.8160705566406	238.4949340820313	-221.2363281249999	404.7483520507812	244.6976928710938	-204.8626556396484	352.5220031738281	42.40700912475592	-296.929931640625	515.546630859375	18.65656280517583	-210.7034454345703	571.3838500976562	30.17674636840827	-315.0687866210938	357.2694396972656	950.3397216796876	-476.5946350097654	486.5058898925781	665.8281860351564	-473.3324890136717	430.7430114746094	681.9188842773439	-488.0440368652342	426.7169494628906	576.3759155273439	-470.235137939453	490.0398559570312	584.1888427734376	-462.129913330078	320.3953247070312	360.9237670898439	-467.9750366210937	268.4293212890625	389.9491577148439	-476.1390075683593	200.5016174316406	336.4045715332032	-462.1783752441406	245.8077545166016	292.430633544922	-449.9766540527343	35.92341232299805	259.030731201172	-397.3307189941406	101.0363388061523	86.73210906982432	-445.3777160644531	132.2089996337891	82.66507720947273	-348.6166687011719	
93	0.368	511.9576721191406	1745.017944335938	-290.6278686523434	455.356201171875	1692.911987304688	-212.6726074218746	453.268798828125	1695.862060546875	-360.5756225585934	323.0500793457031	1520.541625976562	-286.8780517578122	255.3116149902344	1320.263549804688	-227.4979858398435	256.9002685546875	1327.320068359375	-365.7691955566403	505.8428344726562	1364.420043945312	-289.8526611328122	400.6422424316406	1468.248657226562	-117.260948181152	365.4073486328125	1306.4404296875	-30.70217323303194	427.2955322265625	1221.16796875	-29.44325065612766	305.0347595214844	1222.150512695312	-19.15823173522922	355.1096496582031	1116.690795898438	-14.21012783050512	324.8811340332031	1114.736328125	-92.71616363525366	460.6301879882812	935.6266479492188	-27.11109352111796	496.5431823730469	872.2589721679688	-71.44321441650371	435.2027587890625	846.9960327148438	-27.35694694519024	508.6137390136719	783.2885131835938	-21.34929847717268	405.2750854492188	1482.744506835938	-455.8666381835934	387.0575256347656	1317.683837890625	-555.2133178710934	449.1862487792969	1237.126586914063	-554.0906982421873	329.1830444335938	1240.727294921875	-583.860412597656	386.5458374023438	1137.010131835938	-592.783020019531	333.0526428222656	1130.357055664063	-536.6177978515623	482.0181274414062	956.3027343750001	-589.294982910156	502.6174011230469	887.0326538085939	-540.3194580078123	464.5841979980469	877.7142333984376	-608.5448608398435	529.8468627929688	808.2036743164064	-592.9816284179685	397.98779296875	1076.902099609375	-126.098693847656	271.8317565917969	1049.734375	-298.5500488281248	393.9795532226562	1066.072143554688	-471.3876037597654	351.9497680664062	928.9501342773438	-113.0312499999998	421.306884765625	647.08349609375	-147.1658630371092	475.5061340332031	668.8948364257812	-143.160430908203	490.2098388671875	570.764404296875	-184.8941955566405	426.1098022460938	568.3748779296875	-172.6027526855468	420.9237365722656	342.4067687988282	-178.8522338867187	474.2957458496094	321.9256896972657	-199.2481079101562	467.2341003417969	238.6730041503907	-221.1766204833984	405.046875	245.0101165771485	-205.0108642578124	352.2103271484375	42.99882507324225	-297.650634765625	515.5552368164062	18.65660095214848	-210.7061157226562	571.5242309570312	30.23197555541999	-315.0097045898438	363.033203125	951.6848144531251	-476.4012451171873	495.1499633789062	667.9420776367189	-473.1672973632811	439.6580200195312	683.4439697265626	-487.962432861328	436.1970825195312	577.7246093750001	-470.4777832031249	499.4761962890625	586.2471313476564	-461.4409179687499	331.4038391113281	361.5723876953126	-467.2909851074218	279.0046997070312	389.9606933593751	-475.6892089843749	211.7130432128906	335.7702026367189	-461.3309326171874	257.47998046875	292.1954956054689	-449.5989379882812	47.51713180541992	256.2250061035157	-396.3309936523437	116.4031448364258	85.97055816650401	-446.3109130859375	147.9766387939453	81.44789123535163	-349.66162109375	
94	0.372	517.5042724609375	1745.744140625	-290.8702697753902	460.8718872070312	1693.880493164062	-212.8463439941403	458.6103210449219	1696.771606445312	-360.6595764160152	327.9739685058594	1521.59765625	-286.6521301269528	260.8362731933594	1321.251220703125	-227.1615295410153	262.2681579589844	1327.918212890625	-365.5569763183591	511.1554565429688	1365.547119140625	-289.8314819335935	406.0372619628906	1469.40771484375	-117.2059326171872	370.7815856933594	1307.51806640625	-30.40979385375947	432.7148132324219	1222.3662109375	-28.92585372924778	310.5571899414062	1223.331298828125	-18.92114448547336	360.2900085449219	1117.954956054688	-13.80032157897924	330.9365844726562	1115.634887695312	-92.29576873779273	467.3209533691406	937.2711181640625	-27.39600563049295	503.4814453125	874.1207275390625	-71.65911865234355	442.4058532714844	848.4534301757812	-27.7437038421629	516.3319091796875	785.2818603515625	-21.80689048767072	410.2607116699219	1483.8046875	-455.7228393554684	391.8653259277344	1318.688720703125	-555.2302856445309	453.8498229980469	1238.16015625	-555.4513549804685	333.3152160644531	1241.919189453125	-583.0727539062498	391.4221496582031	1137.750610351563	-592.6727294921873	337.7584228515625	1131.406372070313	-536.2731933593748	486.3985290527344	957.1356811523439	-589.3666992187498	506.5563049316406	887.7813720703126	-540.738342285156	468.7369079589844	878.7628173828126	-608.993957519531	533.4935302734375	808.7408447265626	-593.2013549804685	403.5357055664062	1078.10693359375	-125.9741210937498	277.3751525878906	1050.71630859375	-298.1445617675779	401.2324523925781	1067.5390625	-470.4866943359373	356.9201965332031	929.6642456054688	-113.0229568481443	423.7016906738281	647.377685546875	-146.9269561767577	478.321044921875	668.821044921875	-142.7711639404295	492.1261596679688	570.53955078125	-184.5256805419921	428.0348510742188	568.8162841796875	-172.5393524169921	421.2919616699219	342.6045532226563	-179.2506866455077	474.7119140625	321.9440307617188	-199.075714111328	467.4573364257812	238.7655334472657	-221.0894470214843	405.17822265625	245.3686828613282	-205.2475433349609	352.3416442871094	43.28683090209967	-297.8915710449219	515.5829467773438	18.66641235351567	-210.7211151123047	571.6888427734375	30.22332000732429	-314.9548950195312	368.7710571289062	953.0135498046876	-476.2764587402341	503.3427429199219	669.9424438476564	-472.7657470703123	447.8026123046875	684.8793945312501	-487.8332519531248	445.1018371582031	579.0363159179689	-470.1966857910155	508.4450073242188	588.4752197265626	-461.0022888183593	342.01708984375	362.0868225097657	-467.0162658691406	289.6943969726562	390.0145263671876	-475.0426635742186	223.0171813964844	335.0332336425782	-460.6107482910156	269.120849609375	291.9526977539064	-449.2155761718749	59.27305221557617	253.1998291015626	-395.2874145507812	131.8553619384766	84.77268218994151	-447.1625671386719	166.4069061279297	79.69873046875009	-352.2069396972656	
